<svg width="30" height="30" viewBox="0 0 30 30" fill="none" xmlns="http://www.w3.org/2000/svg">
<path fill-rule="evenodd" clip-rule="evenodd" d="M14.7994 4H14.7006C14.0358 3.99997 13.4629 3.99994 13.0042 4.06161C12.5125 4.12771 12.0413 4.27677 11.659 4.65901C11.2768 5.04126 11.1277 5.51252 11.0616 6.00416C10.9999 6.4629 11 7.03577 11 7.70063L11 10.128C10.7654 10.0451 10.513 10 10.25 10H7.25C6.00736 10 5 11.0074 5 12.25V24H4.75C4.33579 24 4 24.3358 4 24.75C4 25.1642 4.33579 25.5 4.75 25.5H24.75C25.1642 25.5 25.5 25.1642 25.5 24.75C25.5 24.3358 25.1642 24 24.75 24H24.5V17.25C24.5 16.0074 23.4926 15 22.25 15H19.25C18.987 15 18.7346 15.0451 18.5 15.128L18.5 7.70064C18.5 7.03577 18.5001 6.46291 18.4384 6.00416C18.3723 5.51252 18.2232 5.04126 17.841 4.65902C17.4587 4.27677 16.9875 4.12771 16.4958 4.06161C16.0371 3.99994 15.4642 3.99997 14.7994 4ZM23 24V17.25C23 16.8358 22.6642 16.5 22.25 16.5H19.25C18.8358 16.5 18.5 16.8358 18.5 17.25V24H23ZM17 24V7.75001C17 7.0217 16.9984 6.55091 16.9518 6.20403C16.908 5.87873 16.8374 5.77677 16.7803 5.71967C16.7232 5.66258 16.6213 5.59197 16.296 5.54823C15.9491 5.5016 15.4783 5.50001 14.75 5.50001C14.0217 5.50001 13.5509 5.5016 13.204 5.54823C12.8787 5.59197 12.7768 5.66258 12.7197 5.71968C12.6626 5.77677 12.592 5.87873 12.5482 6.20403C12.5016 6.55091 12.5 7.0217 12.5 7.75001V24H17ZM11 24V12.25C11 11.8358 10.6642 11.5 10.25 11.5H7.25C6.83579 11.5 6.5 11.8358 6.5 12.25V24H11Z" fill="white"/>
</svg>
