<svg width="32" height="32" viewBox="0 0 32 32" fill="none" xmlns="http://www.w3.org/2000/svg">
<path fill-rule="evenodd" clip-rule="evenodd" d="M11.814 12.6512C11.814 10.3393 13.6881 8.46512 16 8.46512C18.3119 8.46512 20.186 10.3393 20.186 12.6512C20.186 14.9631 18.3119 16.8372 16 16.8372C13.6881 16.8372 11.814 14.9631 11.814 12.6512ZM16 10.1395C14.6129 10.1395 13.4884 11.264 13.4884 12.6512C13.4884 14.0383 14.6129 15.1628 16 15.1628C17.3871 15.1628 18.5116 14.0383 18.5116 12.6512C18.5116 11.264 17.3871 10.1395 16 10.1395Z" fill="white"/>
<path fill-rule="evenodd" clip-rule="evenodd" d="M4 16C4 9.37258 9.37258 4 16 4C22.6274 4 28 9.37258 28 16C28 22.6274 22.6274 28 16 28C9.37258 28 4 22.6274 4 16ZM16 5.67442C10.2973 5.67442 5.67442 10.2973 5.67442 16C5.67442 18.8416 6.82225 21.4151 8.67956 23.2821C8.88093 22.1958 9.27659 21.1716 10.0707 20.348C11.2586 19.1161 13.1581 18.5116 15.9999 18.5116C18.8418 18.5116 20.7413 19.1161 21.9292 20.348C22.7233 21.1716 23.119 22.1959 23.3203 23.2822C25.1777 21.4151 26.3256 18.8416 26.3256 16C26.3256 10.2973 21.7027 5.67442 16 5.67442ZM21.7976 24.5456C21.6839 23.1927 21.3901 22.2013 20.7238 21.5103C19.9988 20.7584 18.6555 20.186 15.9999 20.186C13.3444 20.186 12.0011 20.7584 11.2761 21.5103C10.6098 22.2013 10.316 23.1927 10.2023 24.5455C11.8551 25.669 13.8509 26.3256 16 26.3256C18.1491 26.3256 20.1448 25.669 21.7976 24.5456Z" fill="white"/>
</svg>
