<svg width="34" height="36" viewBox="0 0 34 36" fill="none" xmlns="http://www.w3.org/2000/svg">
<path fill-rule="evenodd" clip-rule="evenodd" d="M16.8083 0C9.67466 0 3.89167 5.78299 3.89167 12.9167V14.0902C3.89167 15.2517 3.54785 16.3873 2.90355 17.3537L0.989209 20.2252C-1.23262 23.558 0.463561 28.088 4.32788 29.1419C5.58723 29.4854 6.85722 29.7759 8.13457 30.0135L8.13773 30.022C9.41939 33.4418 12.8449 35.8333 16.8082 35.8333C20.7716 35.8333 24.1971 33.4418 25.4787 30.022L25.4819 30.0135C26.7593 29.7759 28.0294 29.4854 29.2888 29.1419C33.1531 28.088 34.8493 23.558 32.6275 20.2252L30.7131 17.3537C30.0688 16.3873 29.725 15.2517 29.725 14.0902V12.9167C29.725 5.78299 23.942 0 16.8083 0ZM22.4357 30.4783C18.6974 30.9249 14.919 30.9249 11.1808 30.4782C12.3657 32.1808 14.4266 33.3333 16.8082 33.3333C19.1898 33.3333 21.2508 32.1808 22.4357 30.4783ZM6.39167 12.9167C6.39167 7.1637 11.0554 2.5 16.8083 2.5C22.5613 2.5 27.225 7.1637 27.225 12.9167V14.0902C27.225 15.7453 27.7149 17.3633 28.633 18.7405L30.5473 21.612C31.8226 23.5249 30.849 26.1251 28.631 26.73C20.8906 28.841 12.7261 28.841 4.98567 26.73C2.76762 26.1251 1.79404 23.5249 3.06933 21.612L4.98367 18.7405C5.90176 17.3633 6.39167 15.7453 6.39167 14.0902V12.9167Z" fill="#898992"/>
</svg>
