<svg width="24" height="24" viewBox="0 0 24 24" fill="none" xmlns="http://www.w3.org/2000/svg">
<path fill-rule="evenodd" clip-rule="evenodd" d="M7.81395 8.65116C7.81395 6.33927 9.68811 4.46512 12 4.46512C14.3119 4.46512 16.186 6.33927 16.186 8.65116C16.186 10.9631 14.3119 12.8372 12 12.8372C9.68811 12.8372 7.81395 10.9631 7.81395 8.65116ZM12 6.13953C10.6129 6.13953 9.48837 7.26403 9.48837 8.65116C9.48837 10.0383 10.6129 11.1628 12 11.1628C13.3871 11.1628 14.5116 10.0383 14.5116 8.65116C14.5116 7.26403 13.3871 6.13953 12 6.13953Z" fill="#111827" fill-opacity="0.8"/>
<path fill-rule="evenodd" clip-rule="evenodd" d="M0 12C0 5.37258 5.37258 0 12 0C18.6274 0 24 5.37258 24 12C24 18.6274 18.6274 24 12 24C5.37258 24 0 18.6274 0 12ZM12 1.67442C6.29734 1.67442 1.67442 6.29734 1.67442 12C1.67442 14.8416 2.82225 17.4151 4.67956 19.2821C4.88093 18.1958 5.27659 17.1716 6.07074 16.348C7.25863 15.1161 9.15814 14.5116 11.9999 14.5116C14.8418 14.5116 16.7413 15.1161 17.9292 16.348C18.7233 17.1716 19.119 18.1959 19.3203 19.2822C21.1777 17.4151 22.3256 14.8416 22.3256 12C22.3256 6.29734 17.7027 1.67442 12 1.67442ZM17.7976 20.5456C17.6839 19.1927 17.3901 18.2013 16.7238 17.5103C15.9988 16.7584 14.6555 16.186 11.9999 16.186C9.34437 16.186 8.00106 16.7584 7.27607 17.5103C6.60979 18.2013 6.31603 19.1927 6.2023 20.5455C7.85508 21.669 9.85086 22.3256 12 22.3256C14.1491 22.3256 16.1448 21.669 17.7976 20.5456Z" fill="#111827" fill-opacity="0.8"/>
</svg>
